<?xml version="1.0" standalone="no"?>
<!DOCTYPE svg PUBLIC "-//W3C//DTD SVG 20010904//EN"
 "http://www.w3.org/TR/2001/REC-SVG-20010904/DTD/svg10.dtd">
<svg version="1.0" xmlns="http://www.w3.org/2000/svg"
 width="512.000000pt" height="512.000000pt" viewBox="0 0 512.000000 512.000000"
 preserveAspectRatio="xMidYMid meet">
<metadata>
Created by potrace 1.14, written by Peter Selinger 2001-2017
</metadata>
<g transform="translate(0.000000,512.000000) scale(0.100000,-0.100000)"
fill="#000000" stroke="none">
<path d="M2320 5109 c-491 -47 -981 -246 -1366 -557 -599 -482 -954 -1224
-954 -1992 0 -577 204 -1155 568 -1606 482 -599 1224 -954 1992 -954 577 0
1155 204 1606 568 599 482 954 1224 954 1992 0 577 -204 1155 -568 1606 -433
538 -1071 879 -1767 944 -125 11 -340 11 -465 -1z m1757 -909 c17 -49 16 -252
-2 -400 -15 -126 -54 -363 -164 -990 -151 -865 -191 -1175 -207 -1612 -4 -103
-12 -198 -18 -210 -6 -12 -27 -31 -46 -42 -30 -18 -51 -21 -145 -20 -164 2
-275 36 -345 106 -124 124 -133 437 -30 1053 21 126 38 230 37 231 -6 5 -559
24 -704 24 -154 0 -173 -2 -181 -17 -13 -24 -74 -282 -112 -469 -46 -231 -68
-392 -80 -589 -13 -207 -25 -245 -93 -295 -71 -52 -232 -90 -385 -90 -97 0
-132 20 -156 90 -18 49 -20 84 -20 305 -1 282 10 364 101 773 24 112 42 206
40 209 -3 2 -63 -3 -134 -11 -155 -19 -274 -21 -291 -4 -30 30 -5 101 67 186
75 89 217 174 381 228 47 15 90 32 97 38 6 6 21 47 33 91 41 148 158 489 220
640 33 83 64 159 67 169 6 18 2 19 -93 12 -301 -20 -484 -84 -656 -228 -102
-86 -120 -95 -153 -80 -44 20 -69 86 -70 182 0 75 4 93 31 150 18 37 53 88 83
118 195 196 680 331 1291 358 146 6 158 5 197 -14 67 -35 83 -63 83 -146 0
-87 -30 -204 -70 -269 -21 -34 -37 -83 -54 -170 -25 -120 -91 -370 -160 -602
-19 -66 -34 -120 -33 -121 1 -1 194 -4 429 -7 l427 -5 15 52 c8 28 22 80 31
116 57 227 161 550 231 722 89 220 146 311 274 439 92 93 173 142 225 137 24
-2 32 -10 42 -38z"/>
</g>
</svg>
